<?xml version="1.0" encoding="UTF-8"?>
<!DOCTYPE svg PUBLIC "-//W3C//DTD SVG 1.1//EN" "http://www.w3.org/Graphics/SVG/1.1/DTD/svg11.dtd">
<!-- Creator: CorelDRAW X7 -->
<svg xmlns="http://www.w3.org/2000/svg" xml:space="preserve" width="3.83462in" height="0.787402in" version="1.1" style="shape-rendering:geometricPrecision; text-rendering:geometricPrecision; image-rendering:optimizeQuality; fill-rule:evenodd; clip-rule:evenodd"
viewBox="0 0 1795 369"
 xmlns:xlink="http://www.w3.org/1999/xlink">
 <defs>
  <style type="text/css">
   <![CDATA[
    .fil8 {fill:#FBAF30}
    .fil6 {fill:#EF5BA0}
    .fil5 {fill:#ED3237}
    .fil7 {fill:#A95CA3}
    .fil0 {fill:black}
    .fil2 {fill:#FFF212;fill-rule:nonzero}
    .fil1 {fill:#F68E34;fill-rule:nonzero}
    .fil3 {fill:#00A859;fill-rule:nonzero}
    .fil4 {fill:#0095D7;fill-rule:nonzero}
   ]]>
  </style>
 </defs>
 <g id="Layer_x0020_1">
  <metadata id="CorelCorpID_0Corel-Layer"/>
  <g id="_770002976">
   <g>
    <path class="fil0" d="M1036 85l39 -7 0 30c15,-22 35,-29 65,-29 62,0 77,43 77,60l0 19 0 15 0 119 -38 8 0 -127 0 -8 0 -9c0,-30 -19,-43 -43,-42 -38,0 -58,19 -61,59l0 119 -39 8 0 -215zm195 104l0 0c0,-61 47,-111 105,-111 29,0 56,13 75,33l-1 -102 40 -7 0 290 -38 6 0 -32c-19,21 -46,34 -76,34 -58,0 -105,-50 -105,-111zm39 0l0 0c0,41 33,74 73,74 39,0 72,-33 72,-74 0,-41 -33,-74 -72,-74 -40,0 -73,33 -73,74zm-302 -104l0 0 39 -7 0 214 -39 8 0 -215zm-13 -54l0 0c0,-17 14,-31 31,-31 17,0 31,14 31,31 0,17 -14,31 -31,31 -17,0 -31,-14 -31,-31zm-485 158l0 0c0,-61 47,-111 105,-111 29,0 56,13 75,33l0 -102 39 -7 0 290 -38 6 0 -32c-19,21 -46,34 -76,34 -58,0 -105,-50 -105,-111zm40 0l0 0c0,41 32,74 72,74 40,0 72,-33 72,-74 0,-41 -32,-74 -72,-74 -40,0 -72,33 -72,74zm204 -104l0 0 39 -7 0 214 -39 8 0 -215zm-13 -54l0 0c0,-17 14,-31 31,-31 17,0 31,14 31,31 0,17 -14,31 -31,31 -17,0 -31,-14 -31,-31zm218 74l0 0c19,12 25,31 25,52 0,29 -20,48 -43,60l0 0c33,10 51,35 51,69 0,51 -43,83 -95,82 -37,2 -66,-15 -90,-49l30 -24c16,27 36,40 66,39 29,-3 49,-22 49,-47 -1,-50 -58,-68 -107,-36l8 -30c-31,-11 -44,-37 -44,-64 0,-59 39,-78 83,-79l38 -3c16,-1 37,-6 62,-16l-10 41 -23 5zm-111 52l0 0c0,25 18,45 48,45 26,0 48,-20 48,-45 0,-27 -18,-45 -48,-45 -30,0 -48,19 -48,45z"/>
    <g>
     <path class="fil1" d="M1586 9c50,-2 113,9 158,69 48,65 38,183 -51,236 -89,52 -201,-14 -230,-77 39,60 136,121 225,68 85,-50 94,-161 45,-226 -35,-48 -92,-67 -147,-70z"/>
     <path class="fil2" d="M1527 47c53,-30 134,-26 181,17 58,53 71,166 -11,229 -65,50 -151,23 -202,-19 33,23 129,64 194,14 82,-63 68,-168 9,-221 -38,-35 -118,-43 -171,-20z"/>
     <path class="fil3" d="M1572 306c44,8 89,1 123,-32 70,-67 50,-167 -13,-207 -61,-40 -154,-29 -191,18 51,-45 136,-44 183,-14 56,36 84,129 14,200 -25,26 -63,41 -116,35z"/>
     <path class="fil4" d="M1594 307c44,-6 86,-24 109,-63 44,-74 9,-161 -66,-183 -61,-18 -131,13 -156,55 47,-49 103,-63 151,-49 65,18 109,98 65,176 -16,28 -47,52 -103,64z"/>
     <path class="fil5" d="M1449 185c0,-1 0,-2 0,-3 7,92 85,163 176,158 92,-5 163,-85 158,-178 -4,-73 -52,-132 -117,-153 71,19 125,81 129,158 5,96 -69,177 -164,182 -95,5 -177,-68 -182,-164z"/>
     <g>
      <path class="fil6" d="M1618 300c-1,0 -2,0 -2,0 60,-15 98,-75 87,-136 -12,-60 -71,-98 -132,-84 -47,11 -81,50 -89,95 6,-49 42,-92 92,-104 62,-14 122,25 134,88 12,63 -28,126 -90,141z"/>
     </g>
     <g>
      <path class="fil7" d="M1663 276c-1,0 -1,1 -2,1 44,-38 51,-104 16,-148 -34,-45 -99,-51 -143,-13 -34,29 -47,76 -35,116 -15,-43 -3,-94 33,-125 46,-38 112,-31 148,15 36,47 28,115 -17,154z"/>
     </g>
    </g>
   </g>
   <g>
    <rect class="fil8" x="262" y="147" width="154.494" height="22.8577"/>
    <path class="fil8" d="M201 253c-19,28 -51,47 -87,47l-10 0c-57,0 -104,-47 -104,-105l0 -12c0,-58 47,-104 104,-104l10 0c70,0 105,58 105,120l-195 0c0,47 34,81 81,81l8 0c29,0 56,-15 71,-38l17 11zm-179 -73c0,-47 36,-82 83,-82l8 0c47,0 86,35 86,82l-177 0z"/>
   </g>
  </g>
 </g>
</svg>
