<?xml version="1.0" encoding="UTF-8"?>
<!DOCTYPE svg PUBLIC "-//W3C//DTD SVG 1.1//EN" "http://www.w3.org/Graphics/SVG/1.1/DTD/svg11.dtd">
<!-- Creator: CorelDRAW X7 -->
<svg xmlns="http://www.w3.org/2000/svg" xml:space="preserve" width="8.00139in" height="1.64301in" version="1.1" style="shape-rendering:geometricPrecision; text-rendering:geometricPrecision; image-rendering:optimizeQuality; fill-rule:evenodd; clip-rule:evenodd"
viewBox="0 0 6339 1302"
 xmlns:xlink="http://www.w3.org/1999/xlink">
 <defs>
  <style type="text/css">
   <![CDATA[
    .fil0 {fill:#D2D3D5}
    .fil8 {fill:#FBAF30}
    .fil6 {fill:#EF5BA0}
    .fil5 {fill:#ED3237}
    .fil7 {fill:#A95CA3}
    .fil2 {fill:#FFF212;fill-rule:nonzero}
    .fil1 {fill:#F68E34;fill-rule:nonzero}
    .fil3 {fill:#00A859;fill-rule:nonzero}
    .fil4 {fill:#0095D7;fill-rule:nonzero}
   ]]>
  </style>
 </defs>
 <g id="Layer_x0020_1">
  <metadata id="CorelCorpID_0Corel-Layer"/>
  <g id="_798394512">
   <path class="fil0" d="M3658 301l139 -25 0 106c54,-80 123,-105 230,-105 218,0 273,154 273,213l0 68 0 54 0 421 -137 25 0 -446 0 -30 0 -31c0,-104 -66,-151 -152,-147 -133,-2 -204,68 -214,207l0 422 -139 25 0 -757zm689 367l0 0c0,-217 166,-393 371,-393 104,0 197,45 265,117l-3 -360 140 -25 0 1024 -132 20 -1 -113c-68,75 -163,122 -269,122 -205,0 -371,-176 -371,-392zm140 0l0 0c0,144 114,261 255,261 141,0 255,-117 255,-261 0,-144 -114,-261 -255,-261 -141,0 -255,117 -255,261zm-1068 -367l0 0 139 -25 0 757 -139 25 0 -757zm-45 -192l0 0c0,-60 48,-109 108,-109 60,0 109,49 109,109 0,60 -49,109 -109,109 -60,0 -108,-49 -108,-109zm-1713 559l0 0c0,-217 166,-393 370,-393 104,0 198,45 265,117l0 -360 137 -25 0 1024 -132 20 -1 -113c-67,75 -163,122 -269,122 -204,0 -370,-176 -370,-392zm139 0l0 0c0,144 114,261 255,261 141,0 255,-117 255,-261 0,-144 -114,-261 -255,-261 -141,0 -255,117 -255,261zm721 -367l0 0 140 -25 0 757 -140 25 0 -757zm-45 -192l0 0c0,-60 49,-109 109,-109 60,0 109,49 109,109 0,60 -49,109 -109,109 -60,0 -109,-49 -109,-109zm770 263l0 0c67,42 87,107 87,182 0,102 -69,171 -153,211l4 0c114,38 178,126 178,246 0,181 -152,293 -335,290 -129,7 -234,-53 -319,-174l107 -84c57,94 127,141 234,136 100,-9 172,-79 172,-166 -2,-177 -205,-241 -376,-125l27 -106c-109,-40 -157,-130 -157,-228 0,-208 140,-275 294,-279l133 -8c58,-4 132,-24 220,-60l-35 145 -81 20zm-392 182l0 0c0,88 63,159 169,159 93,0 168,-71 168,-159 0,-96 -62,-159 -168,-159 -107,0 -169,67 -169,159z"/>
   <g>
    <path class="fil1" d="M5603 33c176,-8 397,32 555,242 172,230 136,648 -179,833 -315,184 -709,-50 -811,-271 137,213 479,426 793,241 302,-178 333,-571 161,-801 -125,-167 -325,-234 -519,-244z"/>
    <path class="fil2" d="M5393 166c189,-106 474,-90 640,60 206,187 251,587 -40,809 -230,176 -533,82 -713,-68 116,83 455,225 686,49 290,-221 238,-592 32,-779 -137,-124 -416,-152 -605,-71z"/>
    <path class="fil3" d="M5551 1081c157,30 315,4 437,-114 245,-235 175,-588 -48,-732 -214,-138 -542,-102 -673,65 179,-158 478,-155 644,-50 201,127 299,457 52,707 -90,91 -223,145 -412,124z"/>
    <path class="fil4" d="M5631 1083c155,-20 303,-83 385,-222 153,-261 30,-570 -235,-646 -216,-62 -462,47 -550,195 166,-174 364,-224 535,-175 227,65 382,349 227,624 -55,97 -167,183 -362,224z"/>
    <path class="fil5" d="M5119 655c0,-4 0,-7 0,-11 22,325 298,574 619,557 326,-17 575,-299 558,-629 -13,-256 -183,-466 -411,-540 250,66 439,287 454,559 17,337 -241,624 -578,642 -337,17 -624,-242 -642,-578z"/>
    <g>
     <path class="fil6" d="M5713 1058c-2,1 -4,1 -6,2 211,-53 348,-266 307,-479 -42,-215 -250,-349 -464,-299 -167,39 -289,177 -316,337 20,-174 147,-326 324,-367 219,-52 432,88 475,310 42,223 -100,445 -320,496z"/>
    </g>
    <g>
     <path class="fil7" d="M5873 975c-2,1 -4,2 -5,4 152,-134 178,-367 57,-524 -123,-159 -350,-180 -507,-47 -122,103 -166,269 -122,412 -55,-152 -13,-331 116,-441 160,-135 393,-112 520,52 128,165 101,408 -59,544z"/>
    </g>
   </g>
  </g>
  <g id="_798396560">
   <rect class="fil8" x="924" y="518" width="545.653" height="80.7305"/>
   <path class="fil8" d="M708 893c-66,99 -179,165 -307,165l-32 0c-203,0 -369,-166 -369,-369l0 -43c0,-203 166,-369 369,-369l32 0c251,0 374,207 374,424l-691 0c0,168 120,289 288,289l26 0c105,0 198,-54 253,-135l57 38zm-629 -256c0,-167 125,-291 293,-291l26 0c168,0 305,124 305,291l-624 0z"/>
  </g>
 </g>
</svg>
