<?xml version="1.0" encoding="UTF-8"?>
<!DOCTYPE svg PUBLIC "-//W3C//DTD SVG 1.1//EN" "http://www.w3.org/Graphics/SVG/1.1/DTD/svg11.dtd">
<!-- Creator: CorelDRAW X7 -->
<svg xmlns="http://www.w3.org/2000/svg" xml:space="preserve" width="31.2064mm" height="31.2652mm" version="1.1" style="shape-rendering:geometricPrecision; text-rendering:geometricPrecision; image-rendering:optimizeQuality; fill-rule:evenodd; clip-rule:evenodd"
viewBox="0 0 1265 1268"
 xmlns:xlink="http://www.w3.org/1999/xlink">
 <defs>
  <style type="text/css">
   <![CDATA[
    .str0 {stroke:#373435;stroke-width:3.08928}
    .fil0 {fill:#373435}
   ]]>
  </style>
 </defs>
 <g id="Layer_x0020_1">
  <metadata id="CorelCorpID_0Corel-Layer"/>
  <path class="fil0 str0" d="M659 312l184 352 179 -344 13 -25c12,-26 18,-54 18,-84 0,-116 -94,-209 -210,-209 -116,0 -210,93 -210,209 0,33 8,65 22,93l4 8zm308 -101c0,69 -55,124 -124,124 -69,0 -124,-55 -124,-124 0,-68 55,-124 124,-124 69,0 124,56 124,124z"/>
  <path class="fil0 str0" d="M67 595c7,-93 35,-179 81,-254l165 0c-23,76 -38,162 -41,254l-205 0zm264 0c4,-93 19,-179 43,-254l202 0c-11,-22 -18,-45 -23,-68l-153 0c44,-100 107,-171 178,-196 14,-27 32,-52 53,-73 -348,1 -629,283 -629,631 0,348 282,631 631,631 348,0 631,-283 631,-631 0,-143 -48,-274 -127,-380 -4,26 -11,51 -22,74l-1 3 -4 9 7 0c46,75 74,161 81,254l-205 0c0,-9 -1,-19 -1,-28l-58 112c-4,90 -19,175 -42,248l-518 0c-25,-78 -41,-168 -43,-264l413 0 -36 -68 -377 0zm-265 68l206 0c2,95 17,185 40,264l-165 0c-47,-78 -76,-168 -81,-264zm887 264c24,-79 38,-169 40,-264l206 0c-5,96 -34,186 -81,264l-165 0zm-24 68l141 0c-64,78 -148,138 -244,173 41,-45 76,-104 103,-173zm-530 0l467 0c-56,126 -139,207 -233,207 -94,0 -178,-81 -234,-207zm-204 0l141 0c27,69 62,128 103,173 -96,-35 -180,-95 -244,-173zm142 -722l-140 0c63,-77 147,-136 242,-171 -40,45 -75,103 -102,171z"/>
 </g>
</svg>
