<?xml version="1.0" encoding="UTF-8"?>
<!DOCTYPE svg PUBLIC "-//W3C//DTD SVG 1.1//EN" "http://www.w3.org/Graphics/SVG/1.1/DTD/svg11.dtd">
<!-- Creator: CorelDRAW X7 -->
<svg xmlns="http://www.w3.org/2000/svg" xml:space="preserve" width="36.1584mm" height="27.1419mm" version="1.1" style="shape-rendering:geometricPrecision; text-rendering:geometricPrecision; image-rendering:optimizeQuality; fill-rule:evenodd; clip-rule:evenodd"
viewBox="0 0 10359 7776"
 xmlns:xlink="http://www.w3.org/1999/xlink">
 <defs>
  <style type="text/css">
   <![CDATA[
    .fil0 {fill:#373435}
   ]]>
  </style>
 </defs>
 <g id="Layer_x0020_1">
  <metadata id="CorelCorpID_0Corel-Layer"/>
  <path class="fil0" d="M9002 5526c-305,1202 -1394,2092 -2692,2092 -1533,0 -2777,-1243 -2777,-2777 0,-1533 1244,-2777 2777,-2777 1298,0 2387,890 2692,2093 322,62 564,345 564,684 0,340 -242,623 -564,685zm-7407 -3192c-266,26 -444,-62 -398,-272 34,-159 226,-214 442,-243 210,-28 397,32 388,228 -8,190 -211,266 -432,287zm935 995l0 4027 -208 0 0 -4027 208 0zm-2379 -613c-193,1566 -201,3132 -25,4700 90,218 252,338 486,360l1497 0 64 -95 7289 0c469,-98 768,-378 897,-840l0 -3158c0,-1028 -253,-1553 -575,-1579 -71,-103 -58,-195 38,-278 80,-119 61,-205 -56,-259 -797,-427 -1313,-511 -1548,-253 -288,-662 -618,-1041 -992,-1137l0 -177 -1668 0 0 196c-352,86 -617,303 -796,650 -321,608 -988,895 -2002,860 -1497,-164 -2366,173 -2609,1010zm6159 4422c1276,0 2297,-1035 2297,-2297 0,-1261 -1021,-2297 -2297,-2297 -1268,0 -2296,1029 -2296,2297 0,1269 1028,2297 2296,2297zm1352 -2297c0,747 -605,1352 -1352,1352 -746,0 -1351,-605 -1351,-1352 0,-746 605,-1352 1351,-1352 747,0 1352,606 1352,1352z"/>
 </g>
</svg>
