<?xml version="1.0" encoding="UTF-8"?>
<!DOCTYPE svg PUBLIC "-//W3C//DTD SVG 1.1//EN" "http://www.w3.org/Graphics/SVG/1.1/DTD/svg11.dtd">
<!-- Creator: CorelDRAW X7 -->
<svg xmlns="http://www.w3.org/2000/svg" xml:space="preserve" width="34.5282mm" height="32.6148mm" version="1.1" style="shape-rendering:geometricPrecision; text-rendering:geometricPrecision; image-rendering:optimizeQuality; fill-rule:evenodd; clip-rule:evenodd"
viewBox="0 0 683 645"
 xmlns:xlink="http://www.w3.org/1999/xlink">
 <defs>
  <style type="text/css">
   <![CDATA[
    .fil0 {fill:#373435}
   ]]>
  </style>
 </defs>
 <g id="Layer_x0020_1">
  <metadata id="CorelCorpID_0Corel-Layer"/>
  <path class="fil0" d="M41 471l0 -334 348 0 23 -39 -386 0c-14,0 -26,12 -26,26l0 402c0,15 12,27 26,27l631 0c14,0 26,-12 26,-27l0 -402c0,-14 -12,-26 -26,-26l-82 0 -33 39 100 0 0 334 -601 0zm368 106l-135 0c0,45 -23,51 -40,68l215 0c-17,-17 -40,-23 -40,-68zm-229 -172c71,8 116,0 135,-25 10,-18 -23,-50 -47,-48 -18,0 -29,12 -33,34 -5,27 -23,40 -55,39zm109 -87l33 26 255 -280c12,-12 13,-42 -2,-54 -23,-18 -58,-12 -75,17l-211 291zm237 -285c-3,5 -10,7 -12,0 -5,-13 9,-24 31,-23 3,0 3,6 0,8 -9,3 -16,6 -19,15z"/>
 </g>
</svg>
